# xmcd
#
# Track frame offsets: 
#        150
#        6212
#        31414
#        47833
#        64771
#        86470
#        101847
#        122365
#        146047
#        168382
#        177429
#        204294
#        222467
#        239232
#        254573
#        272536
#
# Disc length: 3854 seconds
#
# Revision: 3
# Processed by: cddbd v1.5.2PL0 Copyright (c) Steve Scherf et al.
# Submitted via: ExactAudioCopy v1.0b3
#
DISCID=ec0f0c10
DTITLE=Harry Manx - Road Ragas Live
DYEAR=2003
DGENRE=Blues
TTITLE0=Intro
TTITLE1=Bring That Thing
TTITLE2=Call It The Blues
TTITLE3=Baby Please Don't Go
TTITLE4=Reuben's Train
TTITLE5=Only Then Will Your House Be Blessed
TTITLE6=Don't Forget To Miss Me
TTITLE7=Take This Hammer
TTITLE8=Coat Of Mail
TTITLE9=Nat Bhariav
TTITLE10=The Gist Of Madhuvanti - The Thrill Is Gone
TTITLE11=Spoonful
TTITLE12=Sunday Morning Ascension
TTITLE13=Sitting On Top Of The World
TTITLE14=Can't Be Satisfied
TTITLE15=Lay Down My Worries
EXTD=
EXTT0=
EXTT1=
EXTT2=
EXTT3=
EXTT4=
EXTT5=
EXTT6=
EXTT7=
EXTT8=
EXTT9=
EXTT10=
EXTT11=
EXTT12=
EXTT13=
EXTT14=
EXTT15=
PLAYORDER=
